<mxfile host="app.diagrams.net" modified="2024-01-14T21:20:07.884Z" agent="Mozilla/5.0 (Windows NT 10.0; Win64; x64) AppleWebKit/537.36 (KHTML, like Gecko) Chrome/120.0.0.0 Safari/537.36" etag="xjy4hnu53318Qtkb0wUN" version="22.1.18" type="device">
  <diagram id="prtHgNgQTEPvFCAcTncT" name="Page-1">
    <mxGraphModel dx="1157" dy="589" grid="1" gridSize="10" guides="1" tooltips="1" connect="1" arrows="1" fold="1" page="1" pageScale="1" pageWidth="827" pageHeight="1169" math="0" shadow="0">
      <root>
        <mxCell id="0" />
        <mxCell id="1" parent="0" />
        <mxCell id="Zfz54Zoif2yQNTUaLrrX-2" value="" style="rounded=0;whiteSpace=wrap;html=1;fillColor=#e1d5e7;strokeColor=#9673a6;fontStyle=1" vertex="1" parent="1">
          <mxGeometry x="40" y="40" width="760" height="510" as="geometry" />
        </mxCell>
        <mxCell id="Zfz54Zoif2yQNTUaLrrX-50" value="" style="edgeStyle=orthogonalEdgeStyle;rounded=0;orthogonalLoop=1;jettySize=auto;html=1;" edge="1" parent="1" source="Zfz54Zoif2yQNTUaLrrX-3" target="Zfz54Zoif2yQNTUaLrrX-6">
          <mxGeometry relative="1" as="geometry" />
        </mxCell>
        <mxCell id="Zfz54Zoif2yQNTUaLrrX-3" value="User Input" style="rounded=1;whiteSpace=wrap;html=1;" vertex="1" parent="1">
          <mxGeometry x="60" y="120" width="120" height="60" as="geometry" />
        </mxCell>
        <mxCell id="Zfz54Zoif2yQNTUaLrrX-4" value="&lt;b&gt;LLM Integration&lt;/b&gt;" style="text;html=1;strokeColor=none;fillColor=none;align=center;verticalAlign=middle;whiteSpace=wrap;rounded=0;" vertex="1" parent="1">
          <mxGeometry x="335" y="40" width="160" height="30" as="geometry" />
        </mxCell>
        <mxCell id="Zfz54Zoif2yQNTUaLrrX-51" value="" style="edgeStyle=orthogonalEdgeStyle;rounded=0;orthogonalLoop=1;jettySize=auto;html=1;" edge="1" parent="1" source="Zfz54Zoif2yQNTUaLrrX-6" target="Zfz54Zoif2yQNTUaLrrX-8">
          <mxGeometry relative="1" as="geometry" />
        </mxCell>
        <mxCell id="Zfz54Zoif2yQNTUaLrrX-6" value="Chatbot Interface" style="rounded=1;whiteSpace=wrap;html=1;" vertex="1" parent="1">
          <mxGeometry x="210" y="120" width="120" height="60" as="geometry" />
        </mxCell>
        <mxCell id="Zfz54Zoif2yQNTUaLrrX-7" value="Response" style="rounded=1;whiteSpace=wrap;html=1;" vertex="1" parent="1">
          <mxGeometry x="660" y="120" width="120" height="60" as="geometry" />
        </mxCell>
        <mxCell id="Zfz54Zoif2yQNTUaLrrX-52" value="" style="edgeStyle=orthogonalEdgeStyle;rounded=0;orthogonalLoop=1;jettySize=auto;html=1;" edge="1" parent="1" source="Zfz54Zoif2yQNTUaLrrX-8" target="Zfz54Zoif2yQNTUaLrrX-9">
          <mxGeometry relative="1" as="geometry" />
        </mxCell>
        <mxCell id="Zfz54Zoif2yQNTUaLrrX-8" value="Query Processor" style="rounded=1;whiteSpace=wrap;html=1;" vertex="1" parent="1">
          <mxGeometry x="360" y="120" width="120" height="60" as="geometry" />
        </mxCell>
        <mxCell id="Zfz54Zoif2yQNTUaLrrX-53" value="" style="edgeStyle=orthogonalEdgeStyle;rounded=0;orthogonalLoop=1;jettySize=auto;html=1;" edge="1" parent="1" source="Zfz54Zoif2yQNTUaLrrX-9" target="Zfz54Zoif2yQNTUaLrrX-7">
          <mxGeometry relative="1" as="geometry" />
        </mxCell>
        <mxCell id="Zfz54Zoif2yQNTUaLrrX-9" value="Database" style="rounded=1;whiteSpace=wrap;html=1;" vertex="1" parent="1">
          <mxGeometry x="510" y="120" width="120" height="60" as="geometry" />
        </mxCell>
        <mxCell id="Zfz54Zoif2yQNTUaLrrX-54" value="" style="edgeStyle=orthogonalEdgeStyle;rounded=0;orthogonalLoop=1;jettySize=auto;html=1;" edge="1" parent="1" source="Zfz54Zoif2yQNTUaLrrX-26" target="Zfz54Zoif2yQNTUaLrrX-27">
          <mxGeometry relative="1" as="geometry" />
        </mxCell>
        <mxCell id="Zfz54Zoif2yQNTUaLrrX-26" value="User Input" style="rounded=1;whiteSpace=wrap;html=1;" vertex="1" parent="1">
          <mxGeometry x="60" y="220" width="120" height="60" as="geometry" />
        </mxCell>
        <mxCell id="Zfz54Zoif2yQNTUaLrrX-55" value="" style="edgeStyle=orthogonalEdgeStyle;rounded=0;orthogonalLoop=1;jettySize=auto;html=1;" edge="1" parent="1" source="Zfz54Zoif2yQNTUaLrrX-27" target="Zfz54Zoif2yQNTUaLrrX-29">
          <mxGeometry relative="1" as="geometry" />
        </mxCell>
        <mxCell id="Zfz54Zoif2yQNTUaLrrX-27" value="Chatbot Interface" style="rounded=1;whiteSpace=wrap;html=1;" vertex="1" parent="1">
          <mxGeometry x="210" y="220" width="120" height="60" as="geometry" />
        </mxCell>
        <mxCell id="Zfz54Zoif2yQNTUaLrrX-28" value="Response" style="rounded=1;whiteSpace=wrap;html=1;" vertex="1" parent="1">
          <mxGeometry x="510" y="220" width="120" height="60" as="geometry" />
        </mxCell>
        <mxCell id="Zfz54Zoif2yQNTUaLrrX-56" value="" style="edgeStyle=orthogonalEdgeStyle;rounded=0;orthogonalLoop=1;jettySize=auto;html=1;" edge="1" parent="1" source="Zfz54Zoif2yQNTUaLrrX-29" target="Zfz54Zoif2yQNTUaLrrX-28">
          <mxGeometry relative="1" as="geometry" />
        </mxCell>
        <mxCell id="Zfz54Zoif2yQNTUaLrrX-29" value="LLM" style="rounded=1;whiteSpace=wrap;html=1;" vertex="1" parent="1">
          <mxGeometry x="360" y="220" width="120" height="60" as="geometry" />
        </mxCell>
        <mxCell id="Zfz54Zoif2yQNTUaLrrX-57" value="" style="edgeStyle=orthogonalEdgeStyle;rounded=0;orthogonalLoop=1;jettySize=auto;html=1;" edge="1" parent="1" source="Zfz54Zoif2yQNTUaLrrX-31" target="Zfz54Zoif2yQNTUaLrrX-32">
          <mxGeometry relative="1" as="geometry" />
        </mxCell>
        <mxCell id="Zfz54Zoif2yQNTUaLrrX-31" value="User Input" style="rounded=1;whiteSpace=wrap;html=1;" vertex="1" parent="1">
          <mxGeometry x="60" y="320" width="120" height="60" as="geometry" />
        </mxCell>
        <mxCell id="Zfz54Zoif2yQNTUaLrrX-58" value="" style="edgeStyle=orthogonalEdgeStyle;rounded=0;orthogonalLoop=1;jettySize=auto;html=1;" edge="1" parent="1" source="Zfz54Zoif2yQNTUaLrrX-32" target="Zfz54Zoif2yQNTUaLrrX-34">
          <mxGeometry relative="1" as="geometry" />
        </mxCell>
        <mxCell id="Zfz54Zoif2yQNTUaLrrX-32" value="Chatbot Interface" style="rounded=1;whiteSpace=wrap;html=1;" vertex="1" parent="1">
          <mxGeometry x="210" y="320" width="120" height="60" as="geometry" />
        </mxCell>
        <mxCell id="Zfz54Zoif2yQNTUaLrrX-59" value="" style="edgeStyle=orthogonalEdgeStyle;rounded=0;orthogonalLoop=1;jettySize=auto;html=1;" edge="1" parent="1" source="Zfz54Zoif2yQNTUaLrrX-34" target="Zfz54Zoif2yQNTUaLrrX-35">
          <mxGeometry relative="1" as="geometry" />
        </mxCell>
        <mxCell id="Zfz54Zoif2yQNTUaLrrX-34" value="LLM for Intent Recognition" style="rounded=1;whiteSpace=wrap;html=1;" vertex="1" parent="1">
          <mxGeometry x="355" y="320" width="120" height="60" as="geometry" />
        </mxCell>
        <mxCell id="Zfz54Zoif2yQNTUaLrrX-35" value="Data Processing Layer" style="rounded=1;whiteSpace=wrap;html=1;" vertex="1" parent="1">
          <mxGeometry x="505" y="320" width="120" height="60" as="geometry" />
        </mxCell>
        <mxCell id="Zfz54Zoif2yQNTUaLrrX-60" value="" style="edgeStyle=orthogonalEdgeStyle;rounded=0;orthogonalLoop=1;jettySize=auto;html=1;" edge="1" parent="1" source="Zfz54Zoif2yQNTUaLrrX-36" target="Zfz54Zoif2yQNTUaLrrX-46">
          <mxGeometry relative="1" as="geometry" />
        </mxCell>
        <mxCell id="Zfz54Zoif2yQNTUaLrrX-36" value="Query Processor" style="rounded=1;whiteSpace=wrap;html=1;" vertex="1" parent="1">
          <mxGeometry x="505" y="400" width="120" height="60" as="geometry" />
        </mxCell>
        <mxCell id="Zfz54Zoif2yQNTUaLrrX-62" value="" style="edgeStyle=orthogonalEdgeStyle;rounded=0;orthogonalLoop=1;jettySize=auto;html=1;" edge="1" parent="1" source="Zfz54Zoif2yQNTUaLrrX-37" target="Zfz54Zoif2yQNTUaLrrX-49">
          <mxGeometry relative="1" as="geometry" />
        </mxCell>
        <mxCell id="Zfz54Zoif2yQNTUaLrrX-37" value="LLM" style="rounded=1;whiteSpace=wrap;html=1;" vertex="1" parent="1">
          <mxGeometry x="505" y="470" width="120" height="60" as="geometry" />
        </mxCell>
        <mxCell id="Zfz54Zoif2yQNTUaLrrX-39" value="" style="shape=partialRectangle;whiteSpace=wrap;html=1;bottom=1;right=1;left=1;top=0;fillColor=none;routingCenterX=-0.5;rotation=-90;dashed=1;" vertex="1" parent="1">
          <mxGeometry x="600" y="450" width="80" height="30" as="geometry" />
        </mxCell>
        <mxCell id="Zfz54Zoif2yQNTUaLrrX-45" style="edgeStyle=orthogonalEdgeStyle;rounded=0;orthogonalLoop=1;jettySize=auto;html=1;exitX=1;exitY=0;exitDx=0;exitDy=0;entryX=1;entryY=0.5;entryDx=0;entryDy=0;endArrow=none;endFill=0;dashed=1;" edge="1" parent="1" source="Zfz54Zoif2yQNTUaLrrX-40" target="Zfz54Zoif2yQNTUaLrrX-35">
          <mxGeometry relative="1" as="geometry" />
        </mxCell>
        <mxCell id="Zfz54Zoif2yQNTUaLrrX-40" value="" style="shape=partialRectangle;whiteSpace=wrap;html=1;bottom=1;right=1;left=1;top=0;fillColor=none;routingCenterX=-0.5;rotation=-90;dashed=1;" vertex="1" parent="1">
          <mxGeometry x="625" y="380" width="120" height="60" as="geometry" />
        </mxCell>
        <mxCell id="Zfz54Zoif2yQNTUaLrrX-61" value="" style="edgeStyle=orthogonalEdgeStyle;rounded=0;orthogonalLoop=1;jettySize=auto;html=1;" edge="1" parent="1" source="Zfz54Zoif2yQNTUaLrrX-46" target="Zfz54Zoif2yQNTUaLrrX-48">
          <mxGeometry relative="1" as="geometry" />
        </mxCell>
        <mxCell id="Zfz54Zoif2yQNTUaLrrX-46" value="Database" style="rounded=1;whiteSpace=wrap;html=1;" vertex="1" parent="1">
          <mxGeometry x="355" y="400" width="120" height="60" as="geometry" />
        </mxCell>
        <mxCell id="Zfz54Zoif2yQNTUaLrrX-48" value="Response" style="rounded=1;whiteSpace=wrap;html=1;" vertex="1" parent="1">
          <mxGeometry x="210" y="400" width="120" height="60" as="geometry" />
        </mxCell>
        <mxCell id="Zfz54Zoif2yQNTUaLrrX-49" value="Response" style="rounded=1;whiteSpace=wrap;html=1;" vertex="1" parent="1">
          <mxGeometry x="355" y="470" width="120" height="60" as="geometry" />
        </mxCell>
        <mxCell id="Zfz54Zoif2yQNTUaLrrX-63" value="&lt;font style=&quot;font-size: 12px;&quot;&gt;Option 1: Query Based System&lt;/font&gt;" style="text;strokeColor=none;fillColor=none;html=1;fontSize=24;fontStyle=1;verticalAlign=middle;align=center;" vertex="1" parent="1">
          <mxGeometry x="100" y="80" width="100" height="40" as="geometry" />
        </mxCell>
        <mxCell id="Zfz54Zoif2yQNTUaLrrX-64" value="&lt;font style=&quot;font-size: 12px;&quot;&gt;Option 3: Hybrid System&lt;/font&gt;" style="text;strokeColor=none;fillColor=none;html=1;fontSize=24;fontStyle=1;verticalAlign=middle;align=center;" vertex="1" parent="1">
          <mxGeometry x="80" y="280" width="100" height="40" as="geometry" />
        </mxCell>
        <mxCell id="Zfz54Zoif2yQNTUaLrrX-65" value="&lt;font style=&quot;font-size: 12px;&quot;&gt;Option 2: LLM-Based System&lt;/font&gt;" style="text;strokeColor=none;fillColor=none;html=1;fontSize=24;fontStyle=1;verticalAlign=middle;align=center;" vertex="1" parent="1">
          <mxGeometry x="90" y="180" width="100" height="40" as="geometry" />
        </mxCell>
      </root>
    </mxGraphModel>
  </diagram>
</mxfile>
